<svg width="32" height="32" viewBox="0 0 32 32" fill="none" xmlns="http://www.w3.org/2000/svg">
<rect x="0.500001" y="0.5" width="31" height="31" rx="7.5" fill="white" stroke="#F2F2F2"/>
<path d="M16.2744 22.9084C16.1087 22.9082 15.9498 22.8423 15.8327 22.7251L10.1911 17.0667C9.42762 16.2878 9 15.2407 9 14.15C9 13.0594 9.42762 12.0122 10.1911 11.2334C10.9646 10.4599 12.0138 10.0253 13.1077 10.0253C14.2017 10.0253 15.2508 10.4599 16.0244 11.2334L16.2744 11.45L16.5077 11.2167C16.8902 10.83 17.3458 10.5233 17.848 10.3145C18.3502 10.1056 18.8889 9.9987 19.4327 10C19.9761 9.99761 20.5144 10.1032 21.0166 10.3106C21.5187 10.518 21.9746 10.8232 22.3577 11.2084C23.1212 11.9872 23.5488 13.0344 23.5488 14.125C23.5488 15.2157 23.1212 16.2628 22.3577 17.0417L16.7161 22.7001C16.6602 22.7627 16.5923 22.8133 16.5164 22.8492C16.4406 22.8849 16.3582 22.9051 16.2744 22.9084ZM13.1161 11.2417C12.7376 11.2389 12.3623 11.3112 12.0119 11.4542C11.6615 11.5972 11.3429 11.8082 11.0744 12.075C10.5335 12.6185 10.2298 13.3541 10.2298 14.1209C10.2298 14.8877 10.5335 15.6232 11.0744 16.1667L16.2744 21.4001L21.4661 16.1834C21.7349 15.9148 21.9482 15.5959 22.0937 15.2448C22.2392 14.8938 22.3142 14.5176 22.3142 14.1375C22.3142 13.7575 22.2392 13.3813 22.0937 13.0302C21.9482 12.6792 21.7349 12.3603 21.4661 12.0917C21.1997 11.8244 20.8827 11.613 20.5335 11.4699C20.1843 11.3268 19.8101 11.2549 19.4327 11.2584C19.0542 11.2556 18.679 11.3278 18.3286 11.4709C17.9782 11.6139 17.6595 11.8249 17.3911 12.0917L16.7161 12.7667C16.5968 12.8798 16.4387 12.9429 16.2744 12.9429C16.1101 12.9429 15.952 12.8798 15.8327 12.7667L15.1577 12.0917C14.8907 11.8219 14.5727 11.6078 14.2222 11.4619C13.8717 11.316 13.4957 11.2411 13.1161 11.2417Z" fill="#D3D3D3"/>
</svg>
